<svg id="iconfinder_tree-plant-forest-leaf-jungle_3228821" xmlns="http://www.w3.org/2000/svg" xmlns:xlink="http://www.w3.org/1999/xlink" width="161.368" height="154.639" viewBox="0 0 161.368 154.639">
  <defs>
    <linearGradient id="linear-gradient" x1="0.5" x2="0.5" y2="1" gradientUnits="objectBoundingBox">
      <stop offset="0" stop-color="#4b09c0"/>
      <stop offset="1" stop-color="#fa21fd"/>
    </linearGradient>
  </defs>
  <path id="Path_69" data-name="Path 69" d="M21.489,101.567a60.27,60.27,0,0,0,21.645,4.883,30.336,30.336,0,0,0,6.176-.6c10.586-2.186,16.871-6.832,20.041-12.316l12.5,12.5v52.836a3.316,3.316,0,1,0,6.632,0V106.031l12.5-12.517c3.371,5.666,9.93,10.385,21.062,12.225h0a30.227,30.227,0,0,0,4.81.383c8.2,0,16.689-2.988,22.811-5.757,1.512-.692,14.721-6.759,15.323-10.422S155.038,76.3,153.817,75.167c-5.867-5.466-14.885-12.389-24.432-13.974a42.4,42.4,0,0,0-7.834-.583,42.962,42.962,0,0,0,5.32-6.887c5.174-8.162,6.031-19.477,5.83-27.53,0-1.64-.474-16.179-3.644-18.219s-16.4,3.826-17.964,4.5c-7.379,3.261-17.236,8.873-22.41,17.035a43.4,43.4,0,0,0-3.644,6.96,42.744,42.744,0,0,0-4.1-7.488C75.474,21.019,65.38,15.808,57.892,12.838c-1.549-.6-15.086-5.885-18.128-3.79S36.848,25.7,36.885,27.359c.128,8.053,1.421,19.313,6.923,27.329a43.053,43.053,0,0,0,5.047,6.085,43.727,43.727,0,0,0-8.672.911c-9.456,1.949-18.219,9.2-23.849,14.922C15.167,77.79,5,88.194,5.748,91.819S19.959,100.947,21.489,101.567ZM71.83,78.173a22.938,22.938,0,0,0-2.35-6.4L81.942,84.222V96.648l-9.948-9.93a23.084,23.084,0,0,0-.164-8.545ZM88.573,96.648V84.222l12.407-12.316a23.5,23.5,0,0,0-2.423,14.812Zm39.828-28.9c12.152,1.986,24.833,15.5,29.06,20.934-5.739,3.79-22.1,12.608-34.253,10.513h0c-13.173-2.186-19.786-9.11-18.219-19.149a14.3,14.3,0,0,1,6.486-10.2C115.557,67.314,121.46,66.677,128.4,67.752ZM94.422,33.135c6.559-10.422,24-16.817,30.627-18.547,1.257,6.723,2.9,25.2-3.644,35.583-7.142,11.278-16.142,14.576-24.706,9.219S87.28,44.394,94.422,33.116Zm-9.11,23.485A22.027,22.027,0,0,0,93.165,65a24.8,24.8,0,0,0,3.516,1.822L85.257,78.155,73.943,66.841a23.358,23.358,0,0,0,4.154-2.3A22.428,22.428,0,0,0,85.239,56.6ZM44.191,15.443c6.687,1.458,24.323,7.178,31.319,17.29,7.579,10.932,7.16,20.588-1.184,26.345A14.193,14.193,0,0,1,62.483,61.5c-4.628-1.166-9.11-4.846-13.209-10.64C42.278,40.732,43.189,22.221,44.191,15.443ZM41.549,68.134c13.063-2.7,21.736,1.458,23.776,11.369S61.044,96.666,47.962,99.362c-12.043,2.478-28.732-5.593-34.617-9.11C17.335,84.623,29.488,70.612,41.549,68.134Z" transform="translate(-5.708 -7.545)" fill="url(#linear-gradient)"/>
  <path id="Path_70" data-name="Path 70" d="M78.592,100.938V81.316a3.316,3.316,0,0,0-6.632,0v19.622a3.316,3.316,0,0,0,6.632,0Z" transform="translate(48.747 50.366)" fill="url(#linear-gradient)"/>
  <path id="Path_71" data-name="Path 71" d="M127.941,96.929c.692-4.172-10.148-12.881-15.96-13.847a19.212,19.212,0,0,0-2.733-.273c2.933-5.174,3.644-18.566,0-20.825-.711-.455-2.2-1.385-9.11,1.676a22.92,22.92,0,0,0-9.711,7.288h0c-3.316-4.883-15.8-10.932-19.294-8.527s-2.3,15.14.747,20.442a17.783,17.783,0,0,0-3.152.4c-5.757,1.184-16.252,10.312-15.4,14.466.765,3.644,11.187,7.4,17.582,7.4a10.932,10.932,0,0,0,2.277-.2c9.456-1.949,11.624-8.472,10.586-13.482a10.566,10.566,0,0,0-.437-1.53,11.023,11.023,0,0,0,7.288-3.407,11.314,11.314,0,0,0,2.1,1.713,10.932,10.932,0,0,0,5.12,1.676,11.332,11.332,0,0,0-.51,1.949c-.82,5.047,1.585,11.478,11.132,13.045a9.639,9.639,0,0,0,1.676.128C116.39,105.036,127.3,100.682,127.941,96.929Zm-56.1,1.512c-3.225.674-7.67-.984-10.494-2.35,2.059-2.369,5.466-5.648,8.709-6.322a8,8,0,0,1,5.466.364,3.808,3.808,0,0,1,1.822,2.678c.674,3.589-2.605,5.047-5.5,5.63ZM85.034,82.554a3.771,3.771,0,0,1-3.152.692,8.071,8.071,0,0,1-4.172-3.5c-1.822-2.7-2.077-7.434-1.822-10.567,2.988.947,7.288,2.842,9.11,5.466a7.962,7.962,0,0,1,1.822,5.138A3.771,3.771,0,0,1,85.034,82.554ZM94.344,80a7.98,7.98,0,0,1,1.585-5.193c1.822-2.788,6.031-4.846,8.982-5.9.292,3.116.255,7.871-1.512,10.64-1.567,2.5-4.1,5.047-7.288,3.1A3.735,3.735,0,0,1,94.344,80Zm15.122,18.365c-2.915-.474-6.249-1.822-5.666-5.466a3.826,3.826,0,0,1,1.694-2.733,6.194,6.194,0,0,1,3.279-.765,15.306,15.306,0,0,1,2.132.182c3.243.547,6.814,3.644,8.946,5.976C117.1,97.038,112.71,98.86,109.466,98.368Z" transform="translate(33.395 36.794)" fill="url(#linear-gradient)"/>
</svg>
