<svg xmlns="http://www.w3.org/2000/svg" width="35.903" height="35.904" viewBox="0 0 35.903 35.904"><defs><style>.a{fill:#fff;}</style></defs><path class="a" d="M24.665,16.7a9.266,9.266,0,1,0,9.265,9.266A9.283,9.283,0,0,0,24.665,16.7Zm0,15.2A5.936,5.936,0,1,1,30.6,25.966,5.962,5.962,0,0,1,24.665,31.9Z" transform="translate(-6.714 -8.086)"/><ellipse class="a" cx="2.099" cy="2.099" rx="2.099" ry="2.099" transform="translate(25.479 6.298)"/><path class="a" d="M36.407,7.768a10.309,10.309,0,0,0-7.6-2.968H13.9C7.6,4.8,3.4,9,3.4,15.3V30.136a10.416,10.416,0,0,0,3.04,7.745A10.563,10.563,0,0,0,13.968,40.7H28.735a10.688,10.688,0,0,0,7.6-2.823A10.363,10.363,0,0,0,39.3,30.208V15.3A10.377,10.377,0,0,0,36.407,7.768Zm-.29,22.44a7.073,7.073,0,0,1-2.1,5.284,7.482,7.482,0,0,1-5.284,1.882H13.968a7.482,7.482,0,0,1-5.284-1.882A7.276,7.276,0,0,1,6.73,30.136V15.3a7.217,7.217,0,0,1,1.954-5.284A7.361,7.361,0,0,1,13.968,8.13H28.879a7.216,7.216,0,0,1,5.284,1.954A7.47,7.47,0,0,1,36.118,15.3V30.208Z" transform="translate(-3.4 -4.8)"/></svg>