<svg id="iconfinder__diamond_2559823" xmlns="http://www.w3.org/2000/svg" xmlns:xlink="http://www.w3.org/1999/xlink" width="175.343" height="155.637" viewBox="0 0 175.343 155.637">
  <defs>
    <linearGradient id="linear-gradient" x1="0.5" x2="0.5" y2="1" gradientUnits="objectBoundingBox">
      <stop offset="0" stop-color="#4b09c0"/>
      <stop offset="1" stop-color="#fa21fd"/>
    </linearGradient>
  </defs>
  <path id="Path_61" data-name="Path 61" d="M174.834,40.1,147.487,19.191l-1.609-1.609L126.575,3.1a2.955,2.955,0,0,0-2.413-.8H53.381a2.955,2.955,0,0,0-2.413.8l-48.26,37A4.179,4.179,0,0,0,1.1,43.321c0,.8,0,2.413.8,3.217L85.554,156.73a4.893,4.893,0,0,0,6.435,0l83.65-111c.8-.8.8-1.609.8-3.217C176.443,41.712,175.639,40.908,174.834,40.1ZM44.534,18.386l8.848-6.435a2.955,2.955,0,0,1,2.413-.8h65.955a2.955,2.955,0,0,1,2.413.8l8.848,7.239a4.022,4.022,0,0,1,0,6.435l-12.065,8.043a2.955,2.955,0,0,1-2.413.8h0l-57.107-.8a2.955,2.955,0,0,1-2.413-.8L45.338,24.821c-1.609-.8-1.609-1.609-2.413-3.217A4.179,4.179,0,0,1,44.534,18.386ZM31.664,69.059h0a4.179,4.179,0,0,1-3.217-1.609L13.165,47.342c-.8-.8-1.609-1.609-.8-3.217,0-.8.8-1.609,1.609-2.413l17.7-13.674a5.128,5.128,0,0,1,4.826,0l14.478,8.848c.8.8,1.609,1.609,1.609,2.413s0,2.413-.8,3.217L34.882,67.45A6.1,6.1,0,0,1,31.664,69.059ZM135.422,85.95,91.989,143.057a4.022,4.022,0,0,1-6.435,0L42.121,85.95c-.8-1.609-.8-3.217,0-4.022a4.31,4.31,0,0,1,3.217-2.413h87.671c1.609,0,3.217.8,3.217,2.413C137.031,82.732,136.227,84.341,135.422,85.95Zm.8-16.891a4.31,4.31,0,0,1-3.217,2.413H49.36c-1.609,0-3.217-.8-3.217-2.413s-.8-3.217,0-4.022L60.62,43.321a4.179,4.179,0,0,1,3.217-1.609h0l53.89.8a4.179,4.179,0,0,1,3.217,1.609l15.282,20.912C137.031,65.842,137.031,67.45,136.227,69.059Zm28.151-21.717L151.509,64.233a4.179,4.179,0,0,1-3.217,1.609h0a4.179,4.179,0,0,1-3.217-1.609L128.988,41.712c-1.609-1.609-.8-4.022.8-5.63l11.261-8.043a5.128,5.128,0,0,1,4.826,0l17.7,13.674c.8.8,1.609,1.609,1.609,2.413C165.987,45.734,165.182,46.538,164.378,47.342Z" transform="translate(-1.1 -2.3)" fill="url(#linear-gradient)"/>
</svg>
