<svg id="iconfinder_Pixel_Art_1021032" xmlns="http://www.w3.org/2000/svg" xmlns:xlink="http://www.w3.org/1999/xlink" width="151.403" height="154.638" viewBox="0 0 151.403 154.638">
  <defs>
    <linearGradient id="linear-gradient" x1="0.5" x2="0.5" y2="1" gradientUnits="objectBoundingBox">
      <stop offset="0" stop-color="#4b09c0"/>
      <stop offset="1" stop-color="#fa21fd"/>
    </linearGradient>
  </defs>
  <path id="Path_13" data-name="Path 13" d="M34.747-245.188A6.014,6.014,0,0,0,33-241.759c0,2.071,3.106,5.112,5.176,5.112,2.135,0,5.176-3.041,5.176-5.176S40.311-247,38.111-247A5.464,5.464,0,0,0,34.747-245.188Z" transform="translate(-20.707 247)" fill="url(#linear-gradient)"/>
  <path id="Path_14" data-name="Path 14" d="M97.257-236.8c-2.782,2.782-2.782,4.141-.065,6.729,2.588,2.523,3.623,2.588,6.147.453,3.041-2.523,3.041-4.012.194-6.923-1.359-1.359-2.847-2.459-3.3-2.459S98.487-238.029,97.257-236.8Z" transform="translate(-42.648 244.176)" fill="url(#linear-gradient)"/>
  <path id="Path_15" data-name="Path 15" d="M64.257-229.8c-2.782,2.782-2.782,4.141-.065,6.729,2.588,2.523,3.623,2.588,6.147.453,3.041-2.523,3.041-4.011.194-6.923C69.175-230.9,67.686-232,67.234-232S65.487-231.029,64.257-229.8Z" transform="translate(-31 241.705)" fill="url(#linear-gradient)"/>
  <path id="Path_16" data-name="Path 16" d="M36.106-221.45C34.618-220.22,33-217.826,33-216.856a15.2,15.2,0,0,0,2.006,2.653c2.523,2.847,4.4,2.912,6.988.259,2.653-2.588,2.588-4.464-.259-6.988C39.017-223.326,38.37-223.391,36.106-221.45Z" transform="translate(-20.707 238.466)" fill="url(#linear-gradient)"/>
  <path id="Path_17" data-name="Path 17" d="M99.257-212.8c-2.782,2.782-2.782,4.141-.065,6.729,2.588,2.523,3.623,2.588,6.147.453,3.041-2.523,3.041-4.012.194-6.923-1.359-1.359-2.847-2.459-3.3-2.459S100.487-214.029,99.257-212.8Z" transform="translate(-43.354 235.705)" fill="url(#linear-gradient)"/>
  <path id="Path_18" data-name="Path 18" d="M121.006-207.735A9.163,9.163,0,0,0,119-204.63c0,1.359,4.141,4.982,5.629,4.982,1.423,0,5.37-3.947,5.37-5.37,0-1.359-4.141-4.982-5.629-4.982C123.659-210,122.106-208.965,121.006-207.735Z" transform="translate(-51.063 233.94)" fill="url(#linear-gradient)"/>
  <path id="Path_19" data-name="Path 19" d="M16.2-206.8c-1.229,1.229-2.2,2.717-2.2,3.3,0,1.423,4.076,5.5,5.5,5.5s5.5-4.076,5.5-5.5-4.076-5.5-5.5-5.5C18.917-209,17.429-208.029,16.2-206.8Z" transform="translate(-14 233.587)" fill="url(#linear-gradient)"/>
  <path id="Path_20" data-name="Path 20" d="M150.817-205.477l-2.459,2.523-2.135-2.2c-3.235-3.3-4.594-2.976-9.77,2.265-5.111,5.241-5.435,6.6-2.2,9.705,2.394,2.329,3.365,2.2,5.823-.518,1.618-1.812,2.394-1.747,4.594.582,2.523,2.588,4.206,2.459,6.988-.582l2.329-2.588,2.847,2.588c3.494,3.041,5.111,3.17,7.635.647,3.106-3.17,2.588-4.464-5.047-11.323-2.265-2.006-4.529-3.623-5.111-3.623C153.664-208,152.111-206.835,150.817-205.477Z" transform="translate(-55.705 233.234)" fill="url(#linear-gradient)"/>
  <path id="Path_21" data-name="Path 21" d="M72.257-204.8c-2.782,2.782-2.782,4.141-.065,6.729,2.588,2.523,3.623,2.588,6.147.453,3.041-2.523,3.041-4.012.194-6.923C77.175-205.9,75.686-207,75.234-207S73.487-206.029,72.257-204.8Z" transform="translate(-33.824 232.881)" fill="url(#linear-gradient)"/>
  <path id="Path_22" data-name="Path 22" d="M187.847-195.8a8.691,8.691,0,0,0-2.2,2.847,14.783,14.783,0,0,0,2.135,3.365l2.071,2.717-2.394,2.459A11.254,11.254,0,0,0,185-181.307a9.81,9.81,0,0,0,2.006,3.041c2.588,2.912,4.4,2.912,7.247.065l2.2-2.2,2.653,2.588,2.588,2.653-2.2,1.876c-2.653,2.329-2.782,4.206-.518,6.923,2.2,2.653,4.335,2.588,7.053-.129l2.135-2.135,2.653,2.459c1.423,1.359,3.17,2.459,3.882,2.459,1.747,0,5.241-3.494,5.241-5.306,0-1.1-3.623-5.111-13.782-15.27C198.264-192.177,191.923-198,191.211-198,190.564-198,189.076-197.029,187.847-195.8Z" transform="translate(-74.359 229.704)" fill="url(#linear-gradient)"/>
  <path id="Path_23" data-name="Path 23" d="M48.257-189.8c-2.782,2.782-2.782,4.141-.065,6.729,2.588,2.523,3.623,2.588,6.147.453,3.041-2.523,3.041-4.012.194-6.923C53.175-190.9,51.686-192,51.233-192S49.487-191.029,48.257-189.8Z" transform="translate(-25.353 227.586)" fill="url(#linear-gradient)"/>
  <path id="Path_24" data-name="Path 24" d="M76.257-187.8c-2.782,2.782-2.782,4.141-.065,6.729,2.588,2.523,3.623,2.588,6.147.453,3.041-2.523,3.041-4.012.194-6.923C81.175-188.9,79.686-190,79.234-190S77.487-189.029,76.257-187.8Z" transform="translate(-35.236 226.88)" fill="url(#linear-gradient)"/>
  <path id="Path_25" data-name="Path 25" d="M109.257-183.8c-2.782,2.782-2.782,4.141-.065,6.729,2.588,2.523,3.623,2.588,6.147.453,3.041-2.523,3.041-4.011.194-6.923-1.359-1.359-2.847-2.459-3.3-2.459S110.487-185.029,109.257-183.8Z" transform="translate(-46.884 225.468)" fill="url(#linear-gradient)"/>
  <path id="Path_26" data-name="Path 26" d="M132.006-177.735A10.742,10.742,0,0,0,130-174.824c0,1.359,4.076,5.176,5.5,5.176,1.876,0,5.5-3.365,5.5-5.047,0-1.812-3.623-5.306-5.5-5.306C134.594-180,133.235-179.094,132.006-177.735Z" transform="translate(-54.945 223.351)" fill="url(#linear-gradient)"/>
  <path id="Path_27" data-name="Path 27" d="M150.8-178.149c-2.2,2.265-2.2,4.012-.065,6.535,2.07,2.459,4.012,2.588,6.664.324,2.588-2.135,2.588-4.27.129-6.794C155.13-180.478,153-180.478,150.8-178.149Z" transform="translate(-61.7 223.311)" fill="url(#linear-gradient)"/>
  <path id="Path_28" data-name="Path 28" d="M169.071-177.865A7.493,7.493,0,0,0,167-174.953c0,1.423,4.012,5.306,5.435,5.306,1.488,0,5.564-3.688,5.564-5.047,0-1.423-4.012-5.306-5.435-5.306C171.788-180,170.235-179.029,169.071-177.865Z" transform="translate(-68.005 223.351)" fill="url(#linear-gradient)"/>
  <path id="Path_29" data-name="Path 29" d="M24.955-176.332c-2.976,2.523-3.041,4.012-.194,6.858s4.335,2.782,6.858-.194c2.135-2.523,2.07-3.753-.518-6.211C28.514-178.4,27.479-178.468,24.955-176.332Z" transform="translate(-17.061 222.595)" fill="url(#linear-gradient)"/>
  <path id="Path_30" data-name="Path 30" d="M59.257-165.8c-2.782,2.782-2.782,4.141-.065,6.729,2.588,2.523,3.623,2.588,6.147.453,3.041-2.523,3.041-4.012.194-6.923C64.175-166.9,62.686-168,62.233-168S60.487-167.029,59.257-165.8Z" transform="translate(-29.235 219.115)" fill="url(#linear-gradient)"/>
  <path id="Path_31" data-name="Path 31" d="M91.257-165.8c-2.782,2.782-2.782,4.141-.065,6.729,2.588,2.523,3.623,2.588,6.147.453,3.041-2.523,3.041-4.012.194-6.923C96.175-166.9,94.686-168,94.233-168S92.487-167.029,91.257-165.8Z" transform="translate(-40.531 219.115)" fill="url(#linear-gradient)"/>
  <path id="Path_32" data-name="Path 32" d="M115.07-159.865a6.923,6.923,0,0,0-2.07,3.429c0,1.359,3.753,5.435,5.047,5.435,1.423,0,5.306-4.012,5.306-5.5,0-1.553-3.882-5.5-5.37-5.5C117.529-162,116.235-161.029,115.07-159.865Z" transform="translate(-48.945 216.997)" fill="url(#linear-gradient)"/>
  <path id="Path_33" data-name="Path 33" d="M169.071-159.865A7.493,7.493,0,0,0,167-156.953c0,1.423,4.012,5.306,5.435,5.306,1.488,0,5.564-3.688,5.564-5.047,0-1.423-4.012-5.306-5.435-5.306C171.788-162,170.235-161.029,169.071-159.865Z" transform="translate(-68.005 216.997)" fill="url(#linear-gradient)"/>
  <path id="Path_34" data-name="Path 34" d="M187.006-159.735A10.741,10.741,0,0,0,185-156.824c0,1.359,4.076,5.176,5.5,5.176,1.876,0,5.5-3.365,5.5-5.047,0-1.812-3.623-5.306-5.5-5.306C189.594-162,188.235-161.094,187.006-159.735Z" transform="translate(-74.359 216.997)" fill="url(#linear-gradient)"/>
  <path id="Path_35" data-name="Path 35" d="M40.257-157.8c-2.782,2.782-2.782,4.141-.065,6.729,2.588,2.523,3.623,2.588,6.147.453,3.041-2.523,3.041-4.012.194-6.923C45.175-158.9,43.686-160,43.233-160S41.487-159.029,40.257-157.8Z" transform="translate(-22.529 216.291)" fill="url(#linear-gradient)"/>
  <path id="Path_36" data-name="Path 36" d="M96.07-141.865A6.923,6.923,0,0,0,94-138.436c0,1.359,3.753,5.435,5.047,5.435,1.423,0,5.306-4.012,5.306-5.5,0-1.553-3.882-5.5-5.37-5.5C98.529-144,97.235-143.029,96.07-141.865Z" transform="translate(-42.238 210.643)" fill="url(#linear-gradient)"/>
  <path id="Path_37" data-name="Path 37" d="M187.523-141.3a11.945,11.945,0,0,0-2.523,3.17c0,1.423,4.012,5.306,5.435,5.306,1.747,0,5.564-3.817,5.564-5.564,0-1.423-2.782-4.335-4.788-5.047C190.37-143.691,189.335-143.108,187.523-141.3Z" transform="translate(-74.359 210.463)" fill="url(#linear-gradient)"/>
  <path id="Path_38" data-name="Path 38" d="M206.294-141.994c-2.847,2.523-2.912,4.529-.388,7.117,2.394,2.394,3.947,2.394,6.47,0,2.718-2.523,2.588-4.594-.259-7.117A10.741,10.741,0,0,0,209.205-144,10.74,10.74,0,0,0,206.294-141.994Z" transform="translate(-81.094 210.643)" fill="url(#linear-gradient)"/>
  <path id="Path_39" data-name="Path 39" d="M72.7-140.477l-2.329,2.459-1.812-1.488c-2.265-2.006-2.717-1.941-5.306.647-2.782,2.782-2.782,4.141-.065,6.729,2.717,2.653,3.947,2.588,6.729-.194l2.329-2.329,1.423,1.359c1.812,1.682,3.041,1.618,5.37-.324,3.041-2.523,3.041-4.011.194-6.923C77.88-141.9,76.392-143,75.939-143S74-141.9,72.7-140.477Z" transform="translate(-30.647 210.29)" fill="url(#linear-gradient)"/>
  <path id="Path_40" data-name="Path 40" d="M163.218-140.606c-2.588,2.717-2.588,3.365.518,6.729l1.553,1.618-2.265,2.2c-2.847,2.782-2.847,4.529-.065,6.988l2.265,1.941-2.265,2.394c-1.229,1.294-2.2,2.976-2.2,3.688s1.035,2.329,2.329,3.559l2.394,2.2-2.782,2.847-2.782,2.847-2.07-2.265c-2.588-2.717-4.4-2.782-6.858-.324-2.394,2.459-2.394,4.335.194,6.988l2.07,2.135-2.523,2.588-2.523,2.588L146.2-93.762c-3.17-2.976-4.012-2.976-6.858-.129-1.359,1.359-2.523,2.847-2.523,3.235a10.722,10.722,0,0,0,2.265,3.17l2.2,2.523-2.459,2.394-2.459,2.394L134.3-82.18c-2.782-2.523-4.335-2.459-7.247.388L124.655-79.4l-2.07-2.394c-2.653-2.976-4.464-2.976-7.764.065L112.168-79.4l-2.394-2.329a12.011,12.011,0,0,0-2.912-2.394,13.68,13.68,0,0,0-3.041,2.329l-2.588,2.329-2.265-2.006c-2.912-2.523-4.594-2.523-7.247.065l-2.135,2.07L86.675-82.18l-2.912-2.847,2.2-1.812c3.3-2.717,3.365-4.141.453-7.117-1.359-1.359-2.847-2.459-3.3-2.459s-1.941,1.165-3.235,2.523l-2.459,2.523-2.912-2.976-2.976-3.041,1.812-1.1a9.857,9.857,0,0,0,2.976-2.653c1.229-1.876.712-3.365-2.135-6.406L72.57-109.29l1.941-1.618c3.106-2.588,3.106-4.076.259-6.988-1.359-1.359-2.847-2.459-3.3-2.459s-1.941,1.165-3.3,2.523c-2.265,2.394-2.459,2.523-3.429,1.488-.906-1.035-.776-1.294,1.165-2.847,3.3-2.653,3.365-4.141.453-7.117-1.359-1.359-2.847-2.459-3.3-2.459-1.229,0-5.176,4.27-5.176,5.629a3.223,3.223,0,0,0,.776,2.006c.647.647.259,1.229-1.618,2.782-1.294,1.1-2.394,2.523-2.394,3.235a1.106,1.106,0,0,1-1.165,1.229c-.647,0-2.135.971-3.3,2.2-2.782,2.847-2.459,3.753,3.623,10.158l4.853,5.111-2.006,1.941c-1.488,1.359-2.006,2.394-1.876,3.559C55.036-88.65,81.5-62.122,83.5-62.122c.841,0,2.2-.906,3.3-2.2l1.812-2.135,5.564,5.37c3.106,2.976,6.082,5.435,6.664,5.435s2.2-1.035,3.623-2.329l2.588-2.329,2.588,2.329c2.912,2.588,3.753,2.523,6.923-.453l2.07-1.941,2.588,2.329c1.747,1.618,2.976,2.265,3.753,1.941.647-.194,3.559-2.717,6.47-5.564l5.241-5.176,2.07,2.394c1.229,1.359,2.653,2.329,3.494,2.329,2.006,0,28.469-26.528,28.728-28.857.194-1.229-.388-2.2-2.006-3.688l-2.265-2.07,5.112-5.241c5.888-6.082,6.276-7.505,2.976-10.417l-2.2-1.941,2.523-2.653c1.359-1.488,2.459-3.17,2.459-3.753s-1.035-2.07-2.265-3.3l-2.265-2.265,2.265-2.523c1.229-1.423,2.265-2.847,2.265-3.3,0-1.1-9.964-10.87-11.064-10.87C166-143,164.512-141.9,163.218-140.606Z" transform="translate(-26.178 210.29)" fill="url(#linear-gradient)"/>
  <path id="Path_41" data-name="Path 41" d="M44.257-133.8c-2.782,2.782-2.782,4.141-.065,6.729,2.588,2.523,3.623,2.588,6.147.453,3.041-2.523,3.041-4.012.194-6.923C49.175-134.9,47.686-136,47.234-136S45.487-135.029,44.257-133.8Z" transform="translate(-23.941 207.82)" fill="url(#linear-gradient)"/>
  <path id="Path_42" data-name="Path 42" d="M96.07-123.865A6.923,6.923,0,0,0,94-120.436c0,1.359,3.753,5.435,5.047,5.435,1.423,0,5.306-4.012,5.306-5.5,0-1.553-3.882-5.5-5.37-5.5C98.529-126,97.235-125.029,96.07-123.865Z" transform="translate(-42.238 204.29)" fill="url(#linear-gradient)"/>
  <path id="Path_43" data-name="Path 43" d="M187.006-122.735A10.742,10.742,0,0,0,185-119.824c0,1.359,4.076,5.176,5.5,5.176,1.876,0,5.5-3.494,5.5-5.306,0-1.682-3.623-5.047-5.5-5.047C189.594-125,188.235-124.094,187.006-122.735Z" transform="translate(-74.359 203.937)" fill="url(#linear-gradient)"/>
  <path id="Path_44" data-name="Path 44" d="M205.735-122.957c-2.135,2.523-2.135,4.464.129,6.6,2.329,2.265,4.27,2.2,6.664-.129,2.459-2.523,2.459-4.659-.129-6.794C209.747-125.545,207.805-125.415,205.735-122.957Z" transform="translate(-81.118 203.899)" fill="url(#linear-gradient)"/>
  <path id="Path_45" data-name="Path 45" d="M40.257-115.8c-2.782,2.782-2.782,4.141-.065,6.729,2.588,2.523,3.623,2.588,6.147.453,3.041-2.523,3.041-4.012.194-6.923C45.175-116.9,43.686-118,43.233-118S41.487-117.029,40.257-115.8Z" transform="translate(-22.529 201.466)" fill="url(#linear-gradient)"/>
  <path id="Path_46" data-name="Path 46" d="M96.07-104.865A6.8,6.8,0,0,0,94-101.371c0,1.359,3.947,5.37,5.306,5.37.906,0,5.694-4.853,5.694-5.823,0-1.229-4.27-5.176-5.629-5.176C98.659-107,97.235-106.029,96.07-104.865Z" transform="translate(-42.238 197.583)" fill="url(#linear-gradient)"/>
  <path id="Path_47" data-name="Path 47" d="M114.057-104.735c-2.394,2.717-2.459,3.429-.647,5.758,1.876,2.394,3.753,3.041,5.823,1.941,1.812-.906,3.817-3.559,3.817-5.047,0-1.229-4.27-4.917-5.759-4.917C116.58-107,115.157-105.965,114.057-104.735Z" transform="translate(-48.643 197.583)" fill="url(#linear-gradient)"/>
  <path id="Path_48" data-name="Path 48" d="M169.057-104.735c-2.394,2.717-2.459,3.429-.647,5.758,1.876,2.394,3.753,3.041,5.823,1.941,1.812-.906,3.817-3.559,3.817-5.047,0-1.229-4.27-4.917-5.759-4.917C171.58-107,170.157-105.965,169.057-104.735Z" transform="translate(-68.057 197.583)" fill="url(#linear-gradient)"/>
  <path id="Path_49" data-name="Path 49" d="M187.955-105.332c-2.976,2.523-3.041,4.012-.194,6.858s4.335,2.782,6.858-.194c2.135-2.523,2.07-3.753-.518-6.211C191.514-107.4,190.479-107.468,187.955-105.332Z" transform="translate(-74.597 197.533)" fill="url(#linear-gradient)"/>
  <path id="Path_50" data-name="Path 50" d="M205.905-105.08c-2.523,2.588-2.459,4.594.388,7.117a10.741,10.741,0,0,0,2.912,2.006,10.742,10.742,0,0,0,2.912-2.006c2.847-2.523,2.912-4.529.388-7.117C210.111-107.473,208.3-107.473,205.905-105.08Z" transform="translate(-81.094 197.539)" fill="url(#linear-gradient)"/>
  <path id="Path_51" data-name="Path 51" d="M96.07-86.865A6.8,6.8,0,0,0,94-83.371C94-82.012,97.947-78,99.306-78c.906,0,5.694-4.853,5.694-5.823C105-85.053,100.729-89,99.37-89,98.659-89,97.235-88.029,96.07-86.865Z" transform="translate(-42.238 191.23)" fill="url(#linear-gradient)"/>
  <path id="Path_52" data-name="Path 52" d="M114.057-86.735c-2.394,2.717-2.459,3.429-.647,5.759,1.876,2.394,3.753,3.041,5.823,1.941,1.812-.906,3.817-3.559,3.817-5.047,0-1.229-4.27-4.917-5.759-4.917C116.58-89,115.157-87.965,114.057-86.735Z" transform="translate(-48.643 191.23)" fill="url(#linear-gradient)"/>
  <path id="Path_53" data-name="Path 53" d="M132.955-87.332c-2.976,2.523-3.041,4.012-.194,6.858s4.335,2.782,6.858-.194c2.135-2.523,2.07-3.753-.518-6.211C136.514-89.4,135.479-89.468,132.955-87.332Z" transform="translate(-55.183 191.18)" fill="url(#linear-gradient)"/>
  <path id="Path_54" data-name="Path 54" d="M150.905-87.08c-2.523,2.588-2.459,4.594.388,7.117a10.741,10.741,0,0,0,2.912,2.006,10.742,10.742,0,0,0,2.912-2.006c2.847-2.523,2.912-4.529.388-7.117C155.111-89.473,153.3-89.473,150.905-87.08Z" transform="translate(-61.681 191.185)" fill="url(#linear-gradient)"/>
  <path id="Path_55" data-name="Path 55" d="M169.057-86.735c-2.394,2.717-2.459,3.429-.647,5.759,1.876,2.394,3.753,3.041,5.823,1.941,1.812-.906,3.817-3.559,3.817-5.047,0-1.229-4.27-4.917-5.759-4.917C171.58-89,170.157-87.965,169.057-86.735Z" transform="translate(-68.057 191.23)" fill="url(#linear-gradient)"/>
  <path id="Path_56" data-name="Path 56" d="M187.955-87.332c-2.976,2.523-3.041,4.012-.194,6.858s4.335,2.782,6.858-.194c2.135-2.523,2.07-3.753-.518-6.211C191.514-89.4,190.479-89.468,187.955-87.332Z" transform="translate(-74.597 191.18)" fill="url(#linear-gradient)"/>
  <path id="Path_57" data-name="Path 57" d="M116.141-70.09c-1.553.582-4.141,3.947-4.141,5.306,0,1.229,4.012,5.047,5.306,5.047,1.423,0,4.853-2.976,5.37-4.594C123.582-67.049,118.923-71.125,116.141-70.09Z" transform="translate(-48.592 184.613)" fill="url(#linear-gradient)"/>
  <path id="Path_58" data-name="Path 58" d="M132.523-68.3A11.945,11.945,0,0,0,130-65.126c0,1.423,4.012,5.306,5.435,5.306,1.747,0,5.564-3.817,5.564-5.564,0-1.423-2.782-4.335-4.788-5.047C135.37-70.691,134.335-70.108,132.523-68.3Z" transform="translate(-54.945 184.696)" fill="url(#linear-gradient)"/>
  <path id="Path_59" data-name="Path 59" d="M151.257-68.8c-2.782,2.782-2.782,4.141-.065,6.729,2.588,2.523,3.623,2.588,6.147.453,3.041-2.523,3.041-4.012.194-6.923C156.175-69.9,154.686-71,154.234-71S152.487-70.029,151.257-68.8Z" transform="translate(-61.709 184.876)" fill="url(#linear-gradient)"/>
  <path id="Path_60" data-name="Path 60" d="M171.141-70.09c-1.553.582-4.141,3.947-4.141,5.306,0,1.229,4.012,5.047,5.306,5.047,1.424,0,4.853-2.976,5.37-4.594C178.582-67.049,173.923-71.125,171.141-70.09Z" transform="translate(-68.005 184.613)" fill="url(#linear-gradient)"/>
</svg>
