<svg id="iconfinder_rain_727683" xmlns="http://www.w3.org/2000/svg" xmlns:xlink="http://www.w3.org/1999/xlink" width="136.851" height="154.639" viewBox="0 0 136.851 154.639">
  <defs>
    <linearGradient id="linear-gradient" x1="0.5" x2="0.5" y2="1" gradientUnits="objectBoundingBox">
      <stop offset="0" stop-color="#4b09c0"/>
      <stop offset="1" stop-color="#fa21fd"/>
    </linearGradient>
  </defs>
  <path id="Path_62" data-name="Path 62" d="M112.791,274.785s-.289,72.424,30.017,57.005C171.528,317.177,112.791,274.785,112.791,274.785Z" transform="translate(-112.791 -179.306)" fill="url(#linear-gradient)"/>
  <path id="Path_63" data-name="Path 63" d="M227.763,281.658s-.253,61.814,25.618,48.652C277.895,317.838,227.763,281.658,227.763,281.658Z" transform="translate(-175.109 -183.031)" fill="url(#linear-gradient)"/>
  <path id="Path_64" data-name="Path 64" d="M150.357,170.261c24.51-12.468-25.605-48.652-25.605-48.652S124.495,183.422,150.357,170.261Z" transform="translate(-119.274 -96.28)" fill="url(#linear-gradient)"/>
  <path id="Path_65" data-name="Path 65" d="M336.482,226.353S336.217,288.167,362.1,275C386.6,262.537,336.482,226.353,336.482,226.353Z" transform="translate(-234.037 -153.054)" fill="url(#linear-gradient)"/>
  <path id="Path_66" data-name="Path 66" d="M233.437,66.3s-.249,61.814,25.614,48.652C283.565,102.483,233.437,66.3,233.437,66.3Z" transform="translate(-178.184 -66.303)" fill="url(#linear-gradient)"/>
  <path id="Path_67" data-name="Path 67" d="M243.025,218.108c17.89-9.1-18.7-35.511-18.7-35.511S224.145,227.72,243.025,218.108Z" transform="translate(-173.248 -129.337)" fill="url(#linear-gradient)"/>
  <path id="Path_68" data-name="Path 68" d="M378.725,177.679c17.89-9.1-18.7-35.511-18.7-35.511S359.844,187.291,378.725,177.679Z" transform="translate(-246.8 -107.424)" fill="url(#linear-gradient)"/>
</svg>
